<svg xmlns="http://www.w3.org/2000/svg" width="125" height="125" viewBox="0 0 125 125"><defs><style>.a{fill:#fff;}.b{fill:none;stroke:#000;stroke-linecap:round;stroke-linejoin:round;stroke-width:3px;}</style></defs><g transform="translate(-151 -153)"><circle class="a" cx="62.5" cy="62.5" r="62.5" transform="translate(151 153)"/><g transform="translate(171.257 177.665)"><path class="b" d="M82.986,63.763a7.408,7.408,0,0,1-7.408,7.408H8.908A7.408,7.408,0,0,1,1.5,63.763V23.02a7.408,7.408,0,0,1,7.408-7.408H23.724L31.131,4.5H53.355l7.408,11.112H75.579a7.408,7.408,0,0,1,7.408,7.408Z" transform="translate(0 0)"/><path class="b" d="M41.631,28.316A14.816,14.816,0,1,1,26.816,13.5,14.816,14.816,0,0,1,41.631,28.316Z" transform="translate(15.428 13.224)"/></g></g></svg>