<svg xmlns="http://www.w3.org/2000/svg" width="125" height="125" viewBox="0 0 125 125"><defs><style>.a{fill:#fff;}.b{fill:#07912c;stroke:#000;}</style></defs><g transform="translate(-344 -153)"><circle class="a" cx="62.5" cy="62.5" r="62.5" transform="translate(344 153)"/><path class="b" d="M50.085,3.938h-.154a17.483,17.483,0,0,0-14.6,7.99,17.483,17.483,0,0,0-14.6-7.99h-.154A17.372,17.372,0,0,0,3.375,21.3c0,5.685,2.489,13.752,7.345,20.389C19.969,54.335,35.334,65.4,35.334,65.4S50.7,54.335,59.949,41.69c4.855-6.638,7.345-14.7,7.345-20.389A17.372,17.372,0,0,0,50.085,3.938Zm6.392,35.217c-6.546,8.958-16.517,17.224-21.142,20.835-4.625-3.611-14.6-11.893-21.142-20.85C9.69,32.993,7.677,25.756,7.677,21.3A13.037,13.037,0,0,1,20.615,8.255h.138a12.882,12.882,0,0,1,6.315,1.659,13.426,13.426,0,0,1,4.671,4.379,4.316,4.316,0,0,0,7.222,0,13.56,13.56,0,0,1,4.671-4.379,12.882,12.882,0,0,1,6.315-1.659h.138A13.037,13.037,0,0,1,63.022,21.3C62.992,25.756,60.979,32.993,56.477,39.154Z" transform="translate(371.166 183.438)"/></g></svg>