<svg xmlns="http://www.w3.org/2000/svg" width="125" height="125" viewBox="0 0 125 125"><defs><style>.a{fill:#fff;}.b{fill:#07912c;stroke:#000;}</style></defs><g transform="translate(-509 -153)"><circle class="a" cx="62.5" cy="62.5" r="62.5" transform="translate(509 153)"/><path class="b" d="M49.711,3.938h-.152a17.343,17.343,0,0,0-14.48,7.926A17.343,17.343,0,0,0,20.6,3.938h-.152A17.233,17.233,0,0,0,3.375,21.161c0,5.64,2.469,13.642,7.286,20.226,9.176,12.544,24.418,23.519,24.418,23.519S50.321,53.932,59.5,41.387C64.313,34.8,66.782,26.8,66.782,21.161A17.233,17.233,0,0,0,49.711,3.938Z" transform="translate(536.421 184.929)"/></g></svg>