<?xml version="1.0" encoding="UTF-8"?>
<svg id="Layer_1" data-name="Layer 1" xmlns="http://www.w3.org/2000/svg" xmlns:xlink="http://www.w3.org/1999/xlink" viewBox="0 0 472.86 338.75">
  <defs>
    <style>
      .cls-1 {
        clip-path: url(#clippath);
      }

      .cls-2 {
        fill: #2f5577;
        font-family: Wellfleet-Regular, Wellfleet;
        font-size: 52.81px;
      }

      .cls-3, .cls-4 {
        fill: #8dc63f;
      }

      .cls-5 {
        clip-path: url(#clippath-1);
      }

      .cls-4, .cls-6 {
        stroke: #009444;
        stroke-miterlimit: 10;
      }

      .cls-6 {
        fill: none;
      }

      .cls-7 {
        fill: #39b54a;
        stroke-width: 0px;
      }
    </style>
    <clipPath id="clippath">
      <path class="cls-4" d="m276.08,252.16s26.18-102.4,37.32-76.7c11.14,25.7,8.67-13.18,8.67-13.18,0,0-12.56-56.98,4.04-34.98,16.59,22,26.54-60.77,26.54-60.77,0,0,5.67-47.94,15.6-19.16,0,0,5.25,13.92,8.78-12.48,3.54-26.4,37.19-32.83,37.19-32.83,0,0,26.68-5.54,4.21,18.38-22.47,23.92-23.07,41.3-23.07,41.3,0,0-3.6,18.76,14.98.75,18.58-18.01,5.81,12.99-10.2,22.4-16.01,9.41-32.33,16.1-29.83,30.28,2.5,14.18,32.56-12.16-4.54,30.24,0,0-13.91,11.3-6.28,26.66,7.63,15.35,20.77,22.6-10.59,31.68-31.36,9.08-3.66,13.65-3.66,13.65,0,0,39.34-7.12-14.09,30.83-69.53,49.38-55.07,3.94-55.07,3.94Z"/>
    </clipPath>
    <clipPath id="clippath-1">
      <path class="cls-4" d="m257.6,270.45c3.6,1.96,8.23.12,9.78-3.87,3.28-8.5-51.35-50.44-3.47-29.78,18.19,7.85,10.67-66.44-.97-49.06-11.64,17.38-22.63-19.52-13.41-61.63,9.21-42.11-10.28-12.27-10.28-12.27,0,0-21.61,28.56-6.11-46.42,1.37-6.62,1.21-13.13-.56-19.11-3.55-11.99-14.9-23.72-32.9,6.9,0,0-11.83,16.46,12.57,88.31,0,0,8.22,27.27-4.88,2.06-13.1-25.21-23.38-12.56,4.47,28.85,19.43,28.89,9.31,39.52,1.42,43.32-4.03,1.93-5.72,6.88-3.83,10.81,4.41,9.14,16.27,24.51,48.18,41.89Z"/>
    </clipPath>
  </defs>
  <g>
    <path class="cls-3" d="m276.08,252.16s26.18-102.4,37.32-76.7c11.14,25.7,8.67-13.18,8.67-13.18,0,0-12.56-56.98,4.04-34.98,16.59,22,26.54-60.77,26.54-60.77,0,0,5.67-47.94,15.6-19.16,0,0,5.25,13.92,8.78-12.48,3.54-26.4,37.19-32.83,37.19-32.83,0,0,26.68-5.54,4.21,18.38-22.47,23.92-23.07,41.3-23.07,41.3,0,0-3.6,18.76,14.98.75,18.58-18.01,5.81,12.99-10.2,22.4-16.01,9.41-32.33,16.1-29.83,30.28,2.5,14.18,32.56-12.16-4.54,30.24,0,0-13.91,11.3-6.28,26.66,7.63,15.35,20.77,22.6-10.59,31.68-31.36,9.08-3.66,13.65-3.66,13.65,0,0,39.34-7.12-14.09,30.83-69.53,49.38-55.07,3.94-55.07,3.94Z"/>
    <g class="cls-1">
      <path class="cls-7" d="m430.54-6.67c-21.23,13.72-53.31,36.55-55.61,64.24-1.21,14.56,7.66,27.81,22.3,30.92,14.94,3.18,27.75-6.6,39.84-13.79-7.27-9.43-14.54-18.85-21.82-28.28-1.29,1.66-2.7,3.22-4.22,4.68,2.56-1.66,4.49-.93,5.8,2.17v9.57l-.37.66c-3.59,2.76-7.17,5.52-10.76,8.27l1.99-.84c-7.38-7.38-14.76-14.76-22.15-22.15-3,14.8-8.44,32.57,8.51,41.01,15.03,7.48,31.72-3.16,42.93-12.91,15.23-13.24-5.12-40.28-21.82-28.28-13.52,9.72-27.04,19.43-40.55,29.15,8.21,8.21,16.42,16.42,24.63,24.63,5.62-8.03,13.56-13.25,17.71-22.5,4.26-9.51,4.54-19.82.24-29.36-10.23-22.73-39.65-15.84-42.95,7.59-1.09,7.7.12,13.51-4.15,20.41-4.46,7.21-9.62,13.74-13.04,21.55-3.91,8.92-5.97,18.84-.18,27.58,3,4.53,7.9,8.31,13.24,9.73,3.84,1.02,8.36.16,11.92,1.53-4.41-5.79-8.81-11.57-13.22-17.36l.05,2.14c2.97-5.18,5.94-10.36,8.92-15.55l-1.72,1.16c8.21,2.15,16.42,4.31,24.63,6.46-6.08-8.11-13.23-14.36-23.58-16.01-16.42-2.62-31.75,16.56-17.52,30.09,2.74,2.6,1.82.8-.55,3.67-2.91,3.53-6.42,6.45-9.21,10.13-7.27,9.56-9.98,21.04-6.46,32.68.93,3.07,3.38,11.06,6.04,13.16,1.24,3.39,2.41,1.94,3.53-4.34,4.3-5.44,4.32-7.06.05-4.88-2.28.15-5.7,2.21-7.74,3.16-10.28,4.84-18.24,12.48-24.45,21.9s-.22,24.02,10.76,26.45c9.65,2.13,19.3,4.26,28.96,6.4v-34.72c-17.03,7.18-26.41,19.11-39.7,31.11-11.98,10.82-28.17,16.41-44.02,18.21,3.03,11.18,6.06,22.37,9.09,33.55,13.6-7.16,26.39-15.39,38.51-24.85,10.52-8.21,23.94-17.97,30.82-29.68,3.04-5.18,4.49-13.11,2.11-18.78-.68-3.47-1.13-3.82-1.35-1.03-.87,2.67-.25,2.55,1.88-.36,2.52-1.52,5.24-3.96,7.42-5.81,11.21-9.51,15.85-21.22,12.95-35.71-2.99-14.96-26.05-17.74-32.91-4.3-6.18,12.11-12.37,24.23-18.55,36.34-4.33,8.48-8.62,23.07-16.62,28.75-18.73,13.32-.77,44.56,18.17,31.09,12.4-8.82,18.64-20.32,25.41-33.6,7.56-14.8,15.11-29.61,22.67-44.41-10.97-1.43-21.94-2.87-32.91-4.3-.69-3.45,2.71-3.88-1.27-1.36-1.91,1.21-3.8,3.02-5.59,4.42-4.26,3.34-8.29,6.98-11.2,11.63-6.57,10.5-4.29,19.66-2.37,30.99v-9.57c2.01-5.65,2.35-3.83-1.68.3-1.85,1.9-3.74,3.76-5.66,5.58-4.78,4.54-9.77,8.9-15,12.91-10.32,7.91-21.52,14.61-33.02,20.65-15.06,7.92-8.93,35.6,9.09,33.55,19.34-2.2,38.4-6.89,54.96-17.55,7.09-4.57,13.53-10.01,19.4-16.05s11.2-13.75,18.93-17.01c14.67-6.18,19.36-30.45,0-34.72-9.65-2.13-19.3-4.26-28.96-6.4,3.59,8.82,7.17,17.63,10.76,26.45,6.64-10.07,20.16-9.52,27.93-18.39,4.91-5.6,6.67-12.75,5.58-20.04-1-6.74-5.81-11.89-7.21-18.21-.67-3.03-.78.65.05-1.3.88-2.08,3.55-3.78,5.12-5.42,5.08-5.3,10.03-11.02,12.31-18.15,4.41-13.77-.38-27.87-10.63-37.61-5.84,10.03-11.68,20.06-17.52,30.09,3.09,1.13,3.77.95,2.06-.54,5.53,7.38,15.84,12.4,24.63,6.46,6.98-4.72,10.81-10.14,10.58-18.85-.22-8.62-5.57-14.41-13.22-17.36-5.53-2.14-10.98-1.49-16.7-2.17,3.03.82,6.06,1.64,9.09,2.46l2.69,2.32c.82,3.03,1.64,6.06,2.46,9.09.62-7.48,11.04-16.77,14.43-23.41,2.41-4.73,4.41-9.75,5.38-14.98.49-2.67.78-5.45.9-8.16.38-8.6,1.1-3.99-4.81.36-3.03.82-6.06,1.64-9.09,2.46l2.35-.1c-4.24-1.76-8.49-3.52-12.73-5.27-.88-2.44-1.76-2.31-2.64.39-1.65,1.76-3.33,3.49-5.06,5.17-3.56,3.76-6.74,7.62-9.71,11.87-10.1,14.45,10.15,35.04,24.63,24.63,13.52-9.72,27.04-19.43,40.55-29.15-7.27-9.43-14.54-18.85-21.82-28.28-3.62,3.15-7.38,5-12.09,5.77h9.57l-3.23-1.21c3.59,2.76,7.17,5.52,10.76,8.27l-1.26-2.4c.82,3.03,1.64,6.06,2.46,9.09.27-4.14,1.71-8.52,2.53-12.58,2.38-11.76-8.38-27.96-22.15-22.15-18.56,7.83-22.37,29.42-5.98,42.6,15.68,12.61,36.42,7.56,48.57-6.94,12.52-14.94-3.21-39.34-21.82-28.28-3.55,2.11-14.03,5.93-15.85,9.45,2.72,7.53,5.28,9.91,7.71,7.14.87-.92,1.5-2,1.91-3.25,1.82-1.78,3.23-4.3,4.96-6.23,9.18-10.23,19.57-18.84,31.09-26.29,19.39-12.54,1.36-43.72-18.17-31.09h0Z"/>
      <path class="cls-7" d="m352.68,111.23c-2.01,11.56-.34,20.73,4.93,31.17,10.51,20.84,40.87,2.57,31.09-18.17-1.5-3.19-3.01-6.39-4.51-9.58-7.37-15.64-35.67-8.53-33.55,9.09,1.1,9.17-5.46,14.89-10.44,22.13-3.02,4.39-5.58,8.94-7.4,13.98-2.19,6.04-1.42,12.43-3.11,18.4-1.62,5.71-6.89,11.79-10.03,16.77-3.96,6.29-8.02,12.52-12.16,18.7-9.13,13.6-18.72,26.88-28.65,39.91-5.94,7.79-1.16,20.07,6.46,24.63,9.19,5.51,18.77,1.23,24.63-6.46,10.38-13.62,20.38-27.52,29.89-41.76,8.66-12.99,21.3-28.11,24.79-43.6,1.21-5.36.45-11.01,2.64-16.09,1.86-4.33,5.49-8.22,8.21-12.02,7.32-10.21,12.73-21.69,11.19-34.57-11.18,3.03-22.37,6.06-33.55,9.09,1.5,3.19,3.01,6.39,4.51,9.58,10.36-6.06,20.73-12.12,31.09-18.17-.68-1.07-1.12-2.21-1.3-3.43,3.94-22.66-30.75-32.4-34.72-9.57h0Z"/>
    </g>
    <path class="cls-6" d="m276.08,252.16s26.18-102.4,37.32-76.7c11.14,25.7,8.67-13.18,8.67-13.18,0,0-12.56-56.98,4.04-34.98,16.59,22,26.54-60.77,26.54-60.77,0,0,5.67-47.94,15.6-19.16,0,0,5.25,13.92,8.78-12.48,3.54-26.4,37.19-32.83,37.19-32.83,0,0,26.68-5.54,4.21,18.38-22.47,23.92-23.07,41.3-23.07,41.3,0,0-3.6,18.76,14.98.75,18.58-18.01,5.81,12.99-10.2,22.4-16.01,9.41-32.33,16.1-29.83,30.28,2.5,14.18,32.56-12.16-4.54,30.24,0,0-13.91,11.3-6.28,26.66,7.63,15.35,20.77,22.6-10.59,31.68-31.36,9.08-3.66,13.65-3.66,13.65,0,0,39.34-7.12-14.09,30.83-69.53,49.38-55.07,3.94-55.07,3.94Z"/>
  </g>
  <g>
    <path class="cls-3" d="m257.6,270.45c3.6,1.96,8.23.12,9.78-3.87,3.28-8.5-51.35-50.44-3.47-29.78,18.19,7.85,10.67-66.44-.97-49.06-11.64,17.38-22.63-19.52-13.41-61.63,9.21-42.11-10.28-12.27-10.28-12.27,0,0-21.61,28.56-6.11-46.42,1.37-6.62,1.21-13.13-.56-19.11-3.55-11.99-14.9-23.72-32.9,6.9,0,0-11.83,16.46,12.57,88.31,0,0,8.22,27.27-4.88,2.06-13.1-25.21-23.38-12.56,4.47,28.85,19.43,28.89,9.31,39.52,1.42,43.32-4.03,1.93-5.72,6.88-3.83,10.81,4.41,9.14,16.27,24.51,48.18,41.89Z"/>
    <g class="cls-5">
      <path class="cls-7" d="m290.15,258.68c-7.63-7.22-20.66-19.48-22.87-29.14v9.57c1.8-8.63,4.62-13.96,2.16-23.31-1.99-7.58-4.33-14.5-5.17-22.36-1.83-17.14-1.35-34.43-4.5-51.45-3.17-17.13-10.62-32.43-12.73-49.94s-6.13-35.71.34-51.87c-10.97,1.43-21.94,2.87-32.91,4.3,3.97,7.34,3.18,16.61,3.44,24.7.32,9.93.63,19.87.95,29.8.57,17.79-.04,35.95,9.33,51.77,4.87,8.22,16.29,11.59,24.63,6.46,18.94-11.65,15.75-29.42,18.18-48.61h-36.01c-1.78,25.08-1.23,49.51.4,74.57,1.23,19.06-2.22,53.13,14.65,66.52,19.65,15.59,41.82-5.1,44.91-24.96,2.63-16.89-2.11-50.21-19.56-58.21-9.43-4.32-18.57-2.18-24.63,6.46-6.26,8.91-9.01,19.75-7.56,30.57.71,5.34,2.46,10.08,4.79,14.93.99,2.05,1.97,4.65,3.4,6.43,4.49,5.57-2.66,3.02,6.84-2.16,4.62-.6,9.25-1.21,13.87-1.81l-2.06-.73,10.76,8.27c-.29,2.09-.39,1.68-.28-1.22.35-2.16,1.25-4.08,2.71-5.74,12.37-19.67-18.77-37.77-31.09-18.17-6.8,10.81-9.9,24.75-5.67,37.13,4.47,13.09,18.97,19.7,31.27,12.63,11.87-6.82,14.13-21.87,10.42-34.1-3.04-10.02-13.33-17.85-6.31-27.84-8.21,2.15-16.42,4.31-24.63,6.46-4.27-1.96-1.56-.06-.42,3.88.91,3.15,1.85,6.4,2.37,9.63.28,1.72.1,3.76.54,5.4,1.49,5.54-3.6,1.98,3.53,2.23,3.03.82,6.06,1.64,9.09,2.46,3.7,6.54,4.52,6.95,2.46,1.24-.61-2.4-1.02-4.83-1.23-7.29-.49-4.13-.62-8.37-.89-12.52-.66-10.1-1.31-20.2-1.96-30.31-1.38-21.42-1.22-42.32.3-63.74.69-9.71-8.77-18-18-18-10.75,0-16.78,8.31-18,18-.58,4.61-.28,8.87-.58,13.48l.09,2.76c-1.18,3.54-1.13,3.97.15,1.29l24.63,6.46c-4.05-6.84-3.79-14.39-4.05-22.14-.33-9.93-.63-19.87-.95-29.8-.59-18.59.38-37.51-8.72-54.34-8.08-14.94-27.55-9.07-32.91,4.3-8.51,21.24-3.62,45.98-.83,67.96,3.08,24.24,13.44,45.9,14.89,70.41.65,10.99,1.07,21.96,2.56,32.88.74,5.44,1.62,10.84,3.1,16.13.34,1.21,2.73,8.39,2.6,4.33.06,1.9-1.98,5.11-2.42,7.21-4.15,19.69,19.27,42.44,32.13,54.6,16.83,15.91,42.34-9.5,25.46-25.46h0Z"/>
      <path class="cls-7" d="m237.99,220.48c-.25,4.74.83-1.42-.46,3.19-.14.5-1.87,5.03-1.04,3.29,10.36,6.06,20.73,12.12,31.09,18.17,3.18-7.28,4.38-13.86,2.11-21.7-1.23-4.27-1.88-9.12-3.59-13.16-3.53-8.37-10.09-14.19-19.75-12.9-7.91,1.06-16.79,8.8-15.61,17.68.94,7.07,1.61,14.25,2.85,21.27.58,3.32,1.67,6.41,3.15,9.46,1.05,2.16,2.54,4.06,4.14,5.85.77.86,2.02,3.34.75.78,4.19,8.46,16.85,11.48,24.63,6.46,8.66-5.58,10.94-15.58,6.46-24.63-.51-1.02-4.13-7.62-5.85-7.39l2.18,3.42c-.33-1.15-.58-2.32-.75-3.51.51,2.72-.46-3.4-.44-3.29-.37-2.8-.74-5.6-1.12-8.4-11.79,1.6-23.58,3.19-35.36,4.79,1.12,2.65,1.2,5.36,1.91,8.12.3,1.15.73,2.24,1.11,3.36,1.59,4.69-.75,2.11,2.08-4.37-3.76,8.61-2.82,19.73,6.46,24.63,8.01,4.23,20.32,2.62,24.63-6.46,3.83-8.07,5.94-15.68,6.42-24.65.5-9.42-8.64-18.42-18-18-10.18.46-17.47,7.91-18,18h0Z"/>
      <path class="cls-7" d="m290.74,264.02c-8.77-12.7-23.95-29.27-26.16-44.89-2.26-16,4.04-35.17,6.62-50.95,3.71-22.67-30.98-32.42-34.72-9.57-3.42,20.92-10.29,44.1-7.46,65.33s18.54,40.76,30.63,58.25c13.09,18.94,44.31.95,31.09-18.17h0Z"/>
    </g>
    <path class="cls-6" d="m257.6,270.45c3.6,1.96,8.23.12,9.78-3.87,3.28-8.5-51.35-50.44-3.47-29.78,18.19,7.85,10.67-66.44-.97-49.06-11.64,17.38-22.63-19.52-13.41-61.63,9.21-42.11-10.28-12.27-10.28-12.27,0,0-21.61,28.56-6.11-46.42,1.37-6.62,1.21-13.13-.56-19.11-3.55-11.99-14.9-23.72-32.9,6.9,0,0-11.83,16.46,12.57,88.31,0,0,8.22,27.27-4.88,2.06-13.1-25.21-23.38-12.56,4.47,28.85,19.43,28.89,9.31,39.52,1.42,43.32-4.03,1.93-5.72,6.88-3.83,10.81,4.41,9.14,16.27,24.51,48.18,41.89Z"/>
  </g>
  <text class="cls-2" transform="translate(113.96 283.08)"><tspan x="0" y="0">Vild</tspan></text>
  <text class="cls-2" transform="translate(216.33 324.82)"><tspan x="0" y="0">Mad</tspan></text>
</svg>